<svg xmlns="http://www.w3.org/2000/svg" viewBox="0 0 938.45 139.24"><defs><style>.cls-1{fill:#ed1b24;}</style></defs><g id="Layer_2" data-name="Layer 2"><g id="Layer_1-2" data-name="Layer 1"><path d="M292.44,48h13.12l18.23,56.78,20.8-59.18h16.16l-29,80H317.08L299,69.94l-18.08,55.67H266.21l-29-80h16.16l20.8,59.18Z"/><path d="M449.68,110.73c-10.24,11.52-23,14.88-35,14.88-27.84,0-45.11-18.87-45.11-41.43,0-23.52,18.07-42.07,43-42.07,21.11,0,40.79,13.59,40.79,43.19H385.05c-.48,15.35,12,26.55,29.76,26.55,9.75,0,18.39-3.36,26.23-10.08ZM386.49,73.3h50.87C433,58.74,421.69,55.7,412.89,55.7,403.61,55.7,391.61,59.38,386.49,73.3Z"/><path d="M515.41,125.61c-10.88,0-21.28-3.68-28.95-14.56v14.56H470.94v-112h15.52v43c7.67-10.87,18.07-14.55,28.95-14.55,24,0,39.67,18.71,39.67,41.75S539.41,125.61,515.41,125.61Zm-1.92-13.76c16.64,0,26.08-12.79,26.08-28s-9.44-28-26.08-28c-15.84,0-27.35,11.84-27.35,28S497.65,111.85,513.49,111.85Z"/><path d="M588.18,89c0,17,7.84,22.87,16.32,22.87,8.31,0,25.75-5.76,25.75-30.87V43.87h15.52v81.74H630.25V107.85c-3.35,11.52-13.6,17.76-26.87,17.76-17.28,0-30.72-10.88-30.72-36.63V43.87h15.52Z"/><rect x="663.67" y="43.87" width="15.51" height="81.74"/><polygon points="679.2 13.63 679.2 36.6 663.34 20.74 663.34 13.63 679.2 13.63"/><path d="M712.29,125.61H696.77v-112h15.52Z"/><path d="M769.54,42.11c10.88,0,21.28,3.68,29,14.55v-43H814v112H798.5V111.05c-7.68,10.88-18.08,14.56-29,14.56-24,0-39.67-18.72-39.67-41.75S745.55,42.11,769.54,42.11Zm1.92,13.75c-16.64,0-26.07,12.8-26.07,28s9.43,28,26.07,28c16.16,0,27.35-11.83,27.35-28S787.62,55.86,771.46,55.86Z"/><path class="cls-1" d="M844.71,125.61H826.47v-1.76l46.71-57.59L831.43,15.39V13.63H849l33.43,40.79L915.9,13.63h17.59v1.76L891.74,66.26l46.71,57.59v1.76H920.21L882.46,79.06Z"/><polygon points="164.58 45.86 69.64 45.86 115.5 0 118.75 0 164.58 45.86"/><polygon points="210.5 45.86 210.5 47.49 140.87 117.12 118.72 139.24 115.46 139.24 93.38 117.12 71.26 139.24 68.01 139.24 63.89 135.12 40.15 111.38 22.15 93.35 22.12 93.35 0 71.23 0 67.98 22.12 45.86 69.6 45.86 45.89 69.6 63.89 87.64 93.38 117.09 117.09 93.38 117.12 93.38 117.12 93.35 140.87 69.6 140.9 69.6 164.64 45.86 210.5 45.86"/></g></g></svg>