<svg xmlns="http://www.w3.org/2000/svg" viewBox="0 0 2266.14 551.31"><defs><style>.cls-1{fill:none;stroke:#0b1e1c;stroke-miterlimit:10;stroke-width:4.77px;}</style></defs><g id="Layer_2" data-name="Layer 2"><g id="Layer_1-2" data-name="Layer 1"><polygon class="cls-1" points="276 138.89 276 141 185.49 231.52 156.7 260.27 152.47 260.27 123.76 231.52 95.02 260.27 90.78 260.27 85.43 254.91 54.57 224.05 31.18 200.61 31.13 200.61 2.39 171.87 2.39 167.64 31.13 138.89 92.86 138.89 62.04 169.75 85.43 193.19 123.76 231.48 154.59 200.66 154.63 200.66 154.63 200.61 185.49 169.75 185.53 169.75 216.39 138.89 276 138.89"/><polygon class="cls-1" points="276 2.39 276 4.5 185.49 95.02 156.7 123.76 152.47 123.76 123.76 95.02 95.02 123.76 90.78 123.76 85.43 118.41 54.57 87.55 31.18 64.11 31.13 64.11 2.39 35.37 2.39 31.13 31.13 2.39 92.86 2.39 62.04 33.25 85.43 56.69 123.76 94.97 154.59 64.15 154.63 64.15 154.63 64.11 185.49 33.25 185.53 33.25 216.39 2.39 276 2.39"/><polygon class="cls-1" points="284.54 123.76 284.54 121.65 375.06 31.13 403.85 2.39 408.08 2.39 436.78 31.13 465.53 2.39 469.76 2.39 475.12 7.74 505.98 38.6 529.37 62.04 529.41 62.04 558.16 90.78 558.16 95.02 529.41 123.76 467.69 123.76 498.51 92.9 475.12 69.46 436.78 31.18 405.96 62 405.92 62 405.92 62.04 375.06 92.9 375.02 92.9 344.15 123.76 284.54 123.76"/><polygon class="cls-1" points="284.54 260.27 284.54 258.15 375.06 167.64 403.85 138.89 408.08 138.89 436.78 167.64 465.53 138.89 469.76 138.89 475.12 144.24 505.98 175.1 529.37 198.54 529.41 198.54 558.16 227.29 558.16 231.52 529.41 260.27 467.69 260.27 498.51 229.4 475.12 205.97 436.78 167.68 405.96 198.5 405.92 198.5 405.92 198.54 375.06 229.4 375.02 229.4 344.15 260.27 284.54 260.27"/><polygon class="cls-1" points="842.6 138.89 842.6 141 752.08 231.52 723.29 260.27 719.06 260.27 690.36 231.52 661.61 260.27 657.38 260.27 652.03 254.91 621.16 224.05 597.77 200.61 597.73 200.61 568.98 171.87 568.98 167.64 597.73 138.89 659.45 138.89 628.63 169.75 652.03 193.19 690.36 231.48 721.18 200.66 721.22 200.66 721.22 200.61 752.08 169.75 752.13 169.75 782.99 138.89 842.6 138.89"/><polygon class="cls-1" points="842.6 2.39 842.6 4.5 752.08 95.02 723.29 123.76 719.06 123.76 690.36 95.02 661.61 123.76 657.38 123.76 652.03 118.41 621.16 87.55 597.77 64.11 597.73 64.11 568.98 35.37 568.98 31.13 597.73 2.39 659.45 2.39 628.63 33.25 652.03 56.69 690.36 94.97 721.18 64.15 721.22 64.15 721.22 64.11 752.08 33.25 752.13 33.25 782.99 2.39 842.6 2.39"/><polygon class="cls-1" points="851.14 123.76 851.14 121.65 941.65 31.13 970.44 2.39 974.67 2.39 1003.38 31.13 1032.13 2.39 1036.36 2.39 1041.71 7.74 1072.57 38.6 1095.97 62.04 1096.01 62.04 1124.76 90.78 1124.76 95.02 1096.01 123.76 1034.28 123.76 1065.11 92.9 1041.71 69.46 1003.38 31.18 972.56 62 972.52 62 972.52 62.04 941.65 92.9 941.61 92.9 910.75 123.76 851.14 123.76"/><polygon class="cls-1" points="851.14 260.27 851.14 258.15 941.65 167.64 970.44 138.89 974.67 138.89 1003.38 167.64 1032.13 138.89 1036.36 138.89 1041.71 144.24 1072.57 175.1 1095.97 198.54 1096.01 198.54 1124.76 227.29 1124.76 231.52 1096.01 260.27 1034.28 260.27 1065.11 229.4 1041.71 205.97 1003.38 167.68 972.56 198.5 972.52 198.5 972.52 198.54 941.65 229.4 941.61 229.4 910.75 260.27 851.14 260.27"/><polygon class="cls-1" points="276 427.55 276 429.66 185.49 520.17 156.7 548.92 152.47 548.92 123.76 520.17 95.02 548.92 90.78 548.92 85.43 543.57 54.57 512.71 31.18 489.27 31.13 489.27 2.39 460.52 2.39 456.29 31.13 427.55 92.86 427.55 62.04 458.41 85.43 481.85 123.76 520.13 154.59 489.31 154.63 489.31 154.63 489.27 185.49 458.41 185.53 458.41 216.39 427.55 276 427.55"/><polygon class="cls-1" points="276 291.04 276 293.16 185.49 383.67 156.7 412.42 152.47 412.42 123.76 383.67 95.02 412.42 90.78 412.42 85.43 407.07 54.57 376.21 31.18 352.77 31.13 352.77 2.39 324.02 2.39 319.79 31.13 291.04 92.86 291.04 62.04 321.91 85.43 345.34 123.76 383.63 154.59 352.81 154.63 352.81 154.63 352.77 185.49 321.91 185.53 321.91 216.39 291.04 276 291.04"/><polygon class="cls-1" points="284.54 412.42 284.54 410.31 375.06 319.79 403.85 291.04 408.08 291.04 436.78 319.79 465.53 291.04 469.76 291.04 475.12 296.39 505.98 327.26 529.37 350.69 529.41 350.69 558.16 379.44 558.16 383.67 529.41 412.42 467.69 412.42 498.51 381.56 475.12 358.12 436.78 319.83 405.96 350.65 405.92 350.65 405.92 350.69 375.06 381.56 375.02 381.56 344.15 412.42 284.54 412.42"/><polygon class="cls-1" points="284.54 548.92 284.54 546.81 375.06 456.29 403.85 427.55 408.08 427.55 436.78 456.29 465.53 427.55 469.76 427.55 475.12 432.9 505.98 463.76 529.37 487.2 529.41 487.2 558.16 515.94 558.16 520.17 529.41 548.92 467.69 548.92 498.51 518.06 475.12 494.62 436.78 456.33 405.96 487.15 405.92 487.15 405.92 487.2 375.06 518.06 375.02 518.06 344.15 548.92 284.54 548.92"/><polygon class="cls-1" points="842.6 427.55 842.6 429.66 752.08 520.17 723.29 548.92 719.06 548.92 690.36 520.17 661.61 548.92 657.38 548.92 652.03 543.57 621.16 512.71 597.77 489.27 597.73 489.27 568.98 460.52 568.98 456.29 597.73 427.55 659.45 427.55 628.63 458.41 652.03 481.85 690.36 520.13 721.18 489.31 721.22 489.31 721.22 489.27 752.08 458.41 752.13 458.41 782.99 427.55 842.6 427.55"/><polygon class="cls-1" points="842.6 291.04 842.6 293.16 752.08 383.67 723.29 412.42 719.06 412.42 690.36 383.67 661.61 412.42 657.38 412.42 652.03 407.07 621.16 376.21 597.77 352.77 597.73 352.77 568.98 324.02 568.98 319.79 597.73 291.04 659.45 291.04 628.63 321.91 652.03 345.34 690.36 383.63 721.18 352.81 721.22 352.81 721.22 352.77 752.08 321.91 752.13 321.91 782.99 291.04 842.6 291.04"/><polygon class="cls-1" points="851.14 412.42 851.14 410.31 941.65 319.79 970.44 291.04 974.67 291.04 1003.38 319.79 1032.13 291.04 1036.36 291.04 1041.71 296.39 1072.57 327.26 1095.97 350.69 1096.01 350.69 1124.76 379.44 1124.76 383.67 1096.01 412.42 1034.28 412.42 1065.11 381.56 1041.71 358.12 1003.38 319.83 972.56 350.65 972.52 350.65 972.52 350.69 941.65 381.56 941.61 381.56 910.75 412.42 851.14 412.42"/><polygon class="cls-1" points="851.14 548.92 851.14 546.81 941.65 456.29 970.44 427.55 974.67 427.55 1003.38 456.29 1032.13 427.55 1036.36 427.55 1041.71 432.9 1072.57 463.76 1095.97 487.2 1096.01 487.2 1124.76 515.94 1124.76 520.17 1096.01 548.92 1034.28 548.92 1065.11 518.06 1041.71 494.62 1003.38 456.33 972.56 487.15 972.52 487.15 972.52 487.2 941.65 518.06 941.61 518.06 910.75 548.92 851.14 548.92"/><polygon class="cls-1" points="1415 138.89 1415 141 1324.48 231.52 1295.69 260.27 1291.46 260.27 1262.76 231.52 1234.01 260.27 1229.78 260.27 1224.43 254.91 1193.56 224.05 1170.17 200.61 1170.13 200.61 1141.38 171.87 1141.38 167.64 1170.13 138.89 1231.85 138.89 1201.03 169.75 1224.43 193.19 1262.76 231.48 1293.58 200.66 1293.62 200.66 1293.62 200.61 1324.48 169.75 1324.52 169.75 1355.39 138.89 1415 138.89"/><polygon class="cls-1" points="1415 2.39 1415 4.5 1324.48 95.02 1295.69 123.76 1291.46 123.76 1262.76 95.02 1234.01 123.76 1229.78 123.76 1224.43 118.41 1193.56 87.55 1170.17 64.11 1170.13 64.11 1141.38 35.37 1141.38 31.13 1170.13 2.39 1231.85 2.39 1201.03 33.25 1224.43 56.69 1262.76 94.97 1293.58 64.15 1293.62 64.15 1293.62 64.11 1324.48 33.25 1324.52 33.25 1355.39 2.39 1415 2.39"/><polygon class="cls-1" points="1423.54 123.76 1423.54 121.65 1514.05 31.13 1542.84 2.39 1547.07 2.39 1575.78 31.13 1604.53 2.39 1608.76 2.39 1614.11 7.74 1644.97 38.6 1668.37 62.04 1668.41 62.04 1697.15 90.78 1697.15 95.02 1668.41 123.76 1606.68 123.76 1637.5 92.9 1614.11 69.46 1575.78 31.18 1544.96 62 1544.91 62 1544.91 62.04 1514.05 92.9 1514.01 92.9 1483.15 123.76 1423.54 123.76"/><polygon class="cls-1" points="1423.54 260.27 1423.54 258.15 1514.05 167.64 1542.84 138.89 1547.07 138.89 1575.78 167.64 1604.53 138.89 1608.76 138.89 1614.11 144.24 1644.97 175.1 1668.37 198.54 1668.41 198.54 1697.15 227.29 1697.15 231.52 1668.41 260.27 1606.68 260.27 1637.5 229.4 1614.11 205.97 1575.78 167.68 1544.96 198.5 1544.91 198.5 1544.91 198.54 1514.05 229.4 1514.01 229.4 1483.15 260.27 1423.54 260.27"/><polygon class="cls-1" points="1981.59 138.89 1981.59 141 1891.08 231.52 1862.29 260.27 1858.06 260.27 1829.35 231.52 1800.6 260.27 1796.37 260.27 1791.02 254.91 1760.16 224.05 1736.76 200.61 1736.72 200.61 1707.97 171.87 1707.97 167.64 1736.72 138.89 1798.45 138.89 1767.63 169.75 1791.02 193.19 1829.35 231.48 1860.17 200.66 1860.21 200.66 1860.21 200.61 1891.08 169.75 1891.12 169.75 1921.98 138.89 1981.59 138.89"/><polygon class="cls-1" points="1981.59 2.39 1981.59 4.5 1891.08 95.02 1862.29 123.76 1858.06 123.76 1829.35 95.02 1800.6 123.76 1796.37 123.76 1791.02 118.41 1760.16 87.55 1736.76 64.11 1736.72 64.11 1707.97 35.37 1707.97 31.13 1736.72 2.39 1798.45 2.39 1767.63 33.25 1791.02 56.69 1829.35 94.97 1860.17 64.15 1860.21 64.15 1860.21 64.11 1891.08 33.25 1891.12 33.25 1921.98 2.39 1981.59 2.39"/><polygon class="cls-1" points="1990.13 123.76 1990.13 121.65 2080.65 31.13 2109.43 2.39 2113.67 2.39 2142.37 31.13 2171.12 2.39 2175.35 2.39 2180.7 7.74 2211.57 38.6 2234.96 62.04 2235 62.04 2263.75 90.78 2263.75 95.02 2235 123.76 2173.28 123.76 2204.1 92.9 2180.7 69.46 2142.37 31.18 2111.55 62 2111.51 62 2111.51 62.04 2080.65 92.9 2080.61 92.9 2049.74 123.76 1990.13 123.76"/><polygon class="cls-1" points="1990.13 260.27 1990.13 258.15 2080.65 167.64 2109.43 138.89 2113.67 138.89 2142.37 167.64 2171.12 138.89 2175.35 138.89 2180.7 144.24 2211.57 175.1 2234.96 198.54 2235 198.54 2263.75 227.29 2263.75 231.52 2235 260.27 2173.28 260.27 2204.1 229.4 2180.7 205.97 2142.37 167.68 2111.55 198.5 2111.51 198.5 2111.51 198.54 2080.65 229.4 2080.61 229.4 2049.74 260.27 1990.13 260.27"/><polygon class="cls-1" points="1415 427.55 1415 429.66 1324.48 520.17 1295.69 548.92 1291.46 548.92 1262.76 520.17 1234.01 548.92 1229.78 548.92 1224.43 543.57 1193.56 512.71 1170.17 489.27 1170.13 489.27 1141.38 460.52 1141.38 456.29 1170.13 427.55 1231.85 427.55 1201.03 458.41 1224.43 481.85 1262.76 520.13 1293.58 489.31 1293.62 489.31 1293.62 489.27 1324.48 458.41 1324.52 458.41 1355.39 427.55 1415 427.55"/><polygon class="cls-1" points="1415 291.04 1415 293.16 1324.48 383.67 1295.69 412.42 1291.46 412.42 1262.76 383.67 1234.01 412.42 1229.78 412.42 1224.43 407.07 1193.56 376.21 1170.17 352.77 1170.13 352.77 1141.38 324.02 1141.38 319.79 1170.13 291.04 1231.85 291.04 1201.03 321.91 1224.43 345.34 1262.76 383.63 1293.58 352.81 1293.62 352.81 1293.62 352.77 1324.48 321.91 1324.52 321.91 1355.39 291.04 1415 291.04"/><polygon class="cls-1" points="1423.54 412.42 1423.54 410.31 1514.05 319.79 1542.84 291.04 1547.07 291.04 1575.78 319.79 1604.53 291.04 1608.76 291.04 1614.11 296.39 1644.97 327.26 1668.37 350.69 1668.41 350.69 1697.15 379.44 1697.15 383.67 1668.41 412.42 1606.68 412.42 1637.5 381.56 1614.11 358.12 1575.78 319.83 1544.96 350.65 1544.91 350.65 1544.91 350.69 1514.05 381.56 1514.01 381.56 1483.15 412.42 1423.54 412.42"/><polygon class="cls-1" points="1423.54 548.92 1423.54 546.81 1514.05 456.29 1542.84 427.55 1547.07 427.55 1575.78 456.29 1604.53 427.55 1608.76 427.55 1614.11 432.9 1644.97 463.76 1668.37 487.2 1668.41 487.2 1697.15 515.94 1697.15 520.17 1668.41 548.92 1606.68 548.92 1637.5 518.06 1614.11 494.62 1575.78 456.33 1544.96 487.15 1544.91 487.15 1544.91 487.2 1514.05 518.06 1514.01 518.06 1483.15 548.92 1423.54 548.92"/><polygon class="cls-1" points="1981.59 427.55 1981.59 429.66 1891.08 520.17 1862.29 548.92 1858.06 548.92 1829.35 520.17 1800.6 548.92 1796.37 548.92 1791.02 543.57 1760.16 512.71 1736.76 489.27 1736.72 489.27 1707.97 460.52 1707.97 456.29 1736.72 427.55 1798.45 427.55 1767.63 458.41 1791.02 481.85 1829.35 520.13 1860.17 489.31 1860.21 489.31 1860.21 489.27 1891.08 458.41 1891.12 458.41 1921.98 427.55 1981.59 427.55"/><polygon class="cls-1" points="1981.59 291.04 1981.59 293.16 1891.08 383.67 1862.29 412.42 1858.06 412.42 1829.35 383.67 1800.6 412.42 1796.37 412.42 1791.02 407.07 1760.16 376.21 1736.76 352.77 1736.72 352.77 1707.97 324.02 1707.97 319.79 1736.72 291.04 1798.45 291.04 1767.63 321.91 1791.02 345.34 1829.35 383.63 1860.17 352.81 1860.21 352.81 1860.21 352.77 1891.08 321.91 1891.12 321.91 1921.98 291.04 1981.59 291.04"/><polygon class="cls-1" points="1990.13 412.42 1990.13 410.31 2080.65 319.79 2109.43 291.04 2113.67 291.04 2142.37 319.79 2171.12 291.04 2175.35 291.04 2180.7 296.39 2211.57 327.26 2234.96 350.69 2235 350.69 2263.75 379.44 2263.75 383.67 2235 412.42 2173.28 412.42 2204.1 381.56 2180.7 358.12 2142.37 319.83 2111.55 350.65 2111.51 350.65 2111.51 350.69 2080.65 381.56 2080.61 381.56 2049.74 412.42 1990.13 412.42"/><polygon class="cls-1" points="1990.13 548.92 1990.13 546.81 2080.65 456.29 2109.43 427.55 2113.67 427.55 2142.37 456.29 2171.12 427.55 2175.35 427.55 2180.7 432.9 2211.57 463.76 2234.96 487.2 2235 487.2 2263.75 515.94 2263.75 520.17 2235 548.92 2173.28 548.92 2204.1 518.06 2180.7 494.62 2142.37 456.33 2111.55 487.15 2111.51 487.15 2111.51 487.2 2080.65 518.06 2080.61 518.06 2049.74 548.92 1990.13 548.92"/></g></g></svg>