<svg xmlns="http://www.w3.org/2000/svg" viewBox="0 0 842.18 361.07"><defs><style>.cls-1{fill:#f7f7f7;}.cls-2{fill:#ed1b24;}</style></defs><g id="Layer_2" data-name="Layer 2"><g id="Layer_1-2" data-name="Layer 1"><path class="cls-1" d="M66.29,267.89H82l21.9,68.2,25-71.08h19.41l-34.78,96.06H95.88L74.17,294.21,52.46,361.07H34.78L0,265H19.41l25,71.08Z"/><path class="cls-1" d="M255.14,343.2c-12.3,13.84-27.66,17.87-42.08,17.87-33.43,0-54.18-22.67-54.18-49.76,0-28.24,21.72-50.53,51.69-50.53,25.36,0,49,16.33,49,51.88h-82c-.58,18.44,14.41,31.89,35.74,31.89,11.71,0,22.09-4,31.51-12.11Zm-75.89-44.95h61.1c-5.19-17.49-18.83-21.14-29.4-21.14C199.81,277.11,185.4,281.53,179.25,298.25Z"/><path class="cls-1" d="M334.08,361.07c-13.06,0-25.55-4.42-34.77-17.48v17.48H280.68V226.58h18.63v51.68c9.22-13.06,21.71-17.48,34.77-17.48,28.83,0,47.66,22.48,47.66,50.15S362.91,361.07,334.08,361.07Zm-2.3-16.52c20,0,31.32-15.37,31.32-33.62s-11.34-33.63-31.32-33.63c-19,0-32.85,14.22-32.85,33.63S312.76,344.55,331.78,344.55Z"/><path class="cls-1" d="M421.49,317.07c0,20.37,9.41,27.48,19.6,27.48,10,0,30.93-6.92,30.93-37.08V262.89h18.63v98.18H472V339.74c-4,13.84-16.33,21.33-32.28,21.33-20.75,0-36.89-13.06-36.89-44V262.89h18.64Z"/><rect class="cls-1" x="512.16" y="262.89" width="18.63" height="98.18"/><polygon class="cls-1" points="530.8 226.58 530.8 254.17 511.75 235.12 511.75 226.58 530.8 226.58"/><path class="cls-1" d="M570.55,361.07H551.91V226.58h18.64Z"/><path class="cls-1" d="M639.31,260.78c13.07,0,25.55,4.42,34.78,17.48V226.58h18.63V361.07H674.09V343.59c-9.23,13.06-21.71,17.48-34.78,17.48-28.82,0-47.65-22.48-47.65-50.14S610.49,260.78,639.31,260.78Zm2.31,16.52c-20,0-31.32,15.38-31.32,33.63s11.33,33.62,31.32,33.62c19.4,0,32.85-14.22,32.85-33.62S661,277.3,641.62,277.3Z"/><path class="cls-1" d="M729.59,361.07h-21.9V359l56.1-69.17-50.14-61.1v-2.11h21.13l40.16,49,40.15-49h21.14v2.11l-50.15,61.1L842.18,359v2.11h-21.9l-45.34-55.91Z"/><polygon class="cls-2" points="498.5 60.54 373.16 60.54 433.7 0 438 0 498.5 60.54"/><polygon class="cls-2" points="559.12 60.54 559.12 62.69 467.2 154.62 437.96 183.81 433.66 183.81 404.51 154.62 375.31 183.81 371.01 183.81 365.58 178.38 334.24 147.03 310.48 123.23 310.43 123.23 281.24 94.03 281.24 89.74 310.43 60.54 373.12 60.54 341.82 91.89 365.58 115.69 404.51 154.57 435.81 123.27 435.85 123.27 435.85 123.23 467.2 91.89 467.24 91.89 498.58 60.54 559.12 60.54"/></g></g></svg>