<svg xmlns="http://www.w3.org/2000/svg" viewBox="0 0 679.19 679.19"><g transform="translate(0 114.97)"><polygon fill="#0b1e1c" points="531.02 147.97 224.68 147.97 372.65 0 383.15 0 531.02 147.97"/><polygon fill="#0b1e1c" points="679.19 147.97 679.19 153.22 454.51 377.9 383.05 449.26 372.55 449.26 301.29 377.9 229.93 449.26 219.43 449.26 206.14 435.98 129.53 359.37 71.46 301.19 71.36 301.19 0 229.83 0 219.33 71.36 147.97 224.58 147.97 148.07 224.58 206.14 282.76 301.29 377.8 377.8 301.29 377.9 301.29 377.9 301.19 454.51 224.58 454.61 224.58 531.22 147.97 679.19 147.97"/></g></svg>